<svg width="24" height="24" viewBox="0 0 24 24" fill="none" xmlns="http://www.w3.org/2000/svg">
<path fill-rule="evenodd" clip-rule="evenodd" d="M12 3C7.02944 3 3 7.02944 3 12C3 16.9706 7.02944 21 12 21C16.9706 21 21 16.9706 21 12C21 7.02944 16.9706 3 12 3ZM1 12C1 5.92487 5.92487 1 12 1C18.0751 1 23 5.92487 23 12C23 18.0751 18.0751 23 12 23C5.92487 23 1 18.0751 1 12Z" fill="#CA2530"/>
<path fill-rule="evenodd" clip-rule="evenodd" d="M7.5 9C7.5 8.17157 8.17157 7.5 9 7.5H9.01C9.83843 7.5 10.51 8.17157 10.51 9C10.51 9.82843 9.83843 10.5 9.01 10.5H9C8.17157 10.5 7.5 9.82843 7.5 9Z" fill="#CA2530"/>
<path fill-rule="evenodd" clip-rule="evenodd" d="M13.5 9C13.5 8.17157 14.1716 7.5 15 7.5H15.01C15.8384 7.5 16.51 8.17157 16.51 9C16.51 9.82843 15.8384 10.5 15.01 10.5H15C14.1716 10.5 13.5 9.82843 13.5 9Z" fill="#CA2530"/>
<path fill-rule="evenodd" clip-rule="evenodd" d="M12 14C10.5068 14 9.1674 14.6533 8.24975 15.693C7.88429 16.1071 7.25235 16.1465 6.83828 15.781C6.42421 15.4155 6.38481 14.7836 6.75027 14.3695C8.03146 12.918 9.90916 12 12 12C14.0909 12 15.9686 12.918 17.2498 14.3695C17.6152 14.7836 17.5758 15.4155 17.1617 15.781C16.7477 16.1465 16.1157 16.1071 15.7503 15.693C14.8326 14.6533 13.4932 14 12 14Z" fill="#CA2530"/>
</svg>
